<?xml version="1.0" encoding="UTF-8"?>
<svg version="1.1" xmlns="http://www.w3.org/2000/svg" width="200" height="204">
<path d="M0 0 C66 0 132 0 200 0 C200 67.32 200 134.64 200 204 C134 204 68 204 0 204 C0 136.68 0 69.36 0 0 Z " fill="#FEFEFE" transform="translate(0,0)"/>
<path d="M0 0 C4.44151174 2.51123448 7.99105539 5.32586078 10.2890625 9.921875 C10.4746875 10.623125 10.6603125 11.324375 10.8515625 12.046875 C11.480625 11.96566406 12.1096875 11.88445312 12.7578125 11.80078125 C17.9755264 11.41573911 21.18795318 11.68796536 25.2890625 15.109375 C29.99271285 19.86053697 31.96402311 24.37231583 32.2265625 31.046875 C32.00239607 37.20211163 30.52032637 41.37811113 26.1015625 45.796875 C18.65049605 50.95530562 12.94255464 51.49540586 4.0390625 51.4453125 C2.91137451 51.44818268 1.78368652 51.45105286 0.62182617 51.45401001 C-1.7550507 51.45604543 -4.13194452 51.45055225 -6.50878906 51.43798828 C-10.13645056 51.42192807 -13.76299794 51.43785567 -17.390625 51.45703125 C-19.70573161 51.45504873 -22.02083754 51.45120487 -24.3359375 51.4453125 C-25.41528564 51.45138519 -26.49463379 51.45745789 -27.60668945 51.4637146 C-34.17541452 51.4026933 -39.66508643 51.03602066 -44.85546875 46.58203125 C-49.11248419 40.91102481 -50.9777257 37.29295062 -50.1484375 30.046875 C-48.54689056 24.24126735 -45.86750692 21.56981062 -41.18359375 18.11328125 C-39.1484375 17.046875 -39.1484375 17.046875 -35.1484375 17.046875 C-35.0659375 16.345625 -34.9834375 15.644375 -34.8984375 14.921875 C-33.26796821 8.67174271 -29.26345121 4.7577673 -24.1484375 1.046875 C-16.6842345 -3.19747572 -7.87401223 -3.4347543 0 0 Z " fill="#4ACEFE" transform="translate(92.1484375,83.953125)"/>
<path d="M0 0 C4.44151174 2.51123448 7.99105539 5.32586078 10.2890625 9.921875 C10.4746875 10.623125 10.6603125 11.324375 10.8515625 12.046875 C11.480625 11.96566406 12.1096875 11.88445312 12.7578125 11.80078125 C17.9755264 11.41573911 21.18795318 11.68796536 25.2890625 15.109375 C29.99271285 19.86053697 31.96402311 24.37231583 32.2265625 31.046875 C32.00239607 37.20211163 30.52032637 41.37811113 26.1015625 45.796875 C18.65049605 50.95530562 12.94255464 51.49540586 4.0390625 51.4453125 C2.91137451 51.44818268 1.78368652 51.45105286 0.62182617 51.45401001 C-1.7550507 51.45604543 -4.13194452 51.45055225 -6.50878906 51.43798828 C-10.13645056 51.42192807 -13.76299794 51.43785567 -17.390625 51.45703125 C-19.70573161 51.45504873 -22.02083754 51.45120487 -24.3359375 51.4453125 C-25.41528564 51.45138519 -26.49463379 51.45745789 -27.60668945 51.4637146 C-34.17541452 51.4026933 -39.66508643 51.03602066 -44.85546875 46.58203125 C-49.11248419 40.91102481 -50.9777257 37.29295062 -50.1484375 30.046875 C-48.54689056 24.24126735 -45.86750692 21.56981062 -41.18359375 18.11328125 C-39.1484375 17.046875 -39.1484375 17.046875 -35.1484375 17.046875 C-35.0659375 16.345625 -34.9834375 15.644375 -34.8984375 14.921875 C-33.26796821 8.67174271 -29.26345121 4.7577673 -24.1484375 1.046875 C-16.6842345 -3.19747572 -7.87401223 -3.4347543 0 0 Z M-28.6484375 12.046875 C-30.18631514 15.12263028 -30.82368284 17.63695102 -31.1484375 21.046875 C-32.6953125 21.1396875 -32.6953125 21.1396875 -34.2734375 21.234375 C-39.00919303 22.227356 -40.96310499 23.40649499 -44.1484375 27.046875 C-45.63187879 31.54692317 -45.53906013 34.99219389 -43.8984375 39.421875 C-41.35774682 43.4192415 -41.35774682 43.4192415 -37.35908508 45.61102295 C-34.93018367 46.089906 -32.69133581 46.18831132 -30.21557617 46.20800781 C-28.74836372 46.22241913 -28.74836372 46.22241913 -27.25151062 46.23712158 C-25.67488396 46.2434964 -25.67488396 46.2434964 -24.06640625 46.25 C-22.43509514 46.25855011 -22.43509514 46.25855011 -20.77082825 46.26727295 C-18.4701942 46.27671508 -16.16954668 46.28325381 -13.86889648 46.28710938 C-10.35962173 46.29680953 -6.85093409 46.32783884 -3.34179688 46.359375 C-1.10417014 46.36590596 1.13346078 46.37115607 3.37109375 46.375 C4.4161055 46.3873468 5.46111725 46.3996936 6.53779602 46.41241455 C14.04502198 46.3896017 18.97351524 45.55751197 24.7890625 40.484375 C27.39549312 37.02633834 27.43981505 33.73714417 27.2109375 29.515625 C26.56829574 25.10095551 25.42009257 21.49657704 22.046875 18.37890625 C18.20987502 16.05076213 14.19717978 16.51826121 9.8515625 17.046875 C6.48277479 18.35406763 6.48277479 18.35406763 3.8515625 20.046875 C2.8615625 20.376875 1.8715625 20.706875 0.8515625 21.046875 C0.3565625 19.561875 0.3565625 19.561875 -0.1484375 18.046875 C1.90389935 15.7990775 2.85823511 15.0446508 5.8515625 14.046875 C5.60163234 10.67281778 4.61877411 9.8246679 2.1015625 7.421875 C-2.86301931 3.31956266 -8.00389303 2.48274056 -14.29296875 2.6015625 C-20.53301468 3.57470236 -24.71280043 7.32411051 -28.6484375 12.046875 Z " fill="#1CB6ED" transform="translate(92.1484375,83.953125)"/>
<path d="M0 0 C3.38021448 1.5939727 6.22408525 3.28069303 8.62890625 6.19140625 C8.62890625 7.18140625 8.62890625 8.17140625 8.62890625 9.19140625 C7.80390625 9.50078125 6.97890625 9.81015625 6.12890625 10.12890625 C-0.35269887 13.37733423 -4.63424893 20.16817063 -8.80859375 25.87890625 C-12.30773583 30.46952384 -16.37377021 33.37406119 -21.37109375 36.19140625 C-21.995 36.55621094 -22.61890625 36.92101562 -23.26171875 37.296875 C-25.99003881 38.4538848 -28.48843441 38.76714595 -31.43359375 39.06640625 C-32.47644531 39.18757813 -33.51929688 39.30875 -34.59375 39.43359375 C-37.37109375 39.19140625 -37.37109375 39.19140625 -39.1875 37.4765625 C-41.09095579 33.80157361 -41.49617747 30.30445342 -41.37109375 26.19140625 C-39.83492118 22.47225161 -37.89135628 20.14710766 -34.37109375 18.19140625 C-30.62109375 17.50390625 -30.62109375 17.50390625 -27.37109375 17.19140625 C-27.28859375 16.32515625 -27.20609375 15.45890625 -27.12109375 14.56640625 C-25.83330665 8.7713643 -22.95040111 5.35381222 -18.30859375 1.81640625 C-12.45261349 -1.84358141 -6.52302287 -2.2244905 0 0 Z " fill="#79DBFE" transform="translate(88.37109375,87.80859375)"/>
<path d="M0 0 C5.47608615 3.21998102 10.55157738 8.03363838 12.58203125 14.125 C13.25317933 21.55163864 13.1454154 27.97368149 8.58203125 34.125 C6.33203125 36.125 6.33203125 36.125 4.58203125 37.125 C4.42347656 36.54492188 4.26492187 35.96484375 4.1015625 35.3671875 C2.06872713 28.5611199 -0.36001028 24.16363898 -6.41796875 20.125 C-8.01993577 20.03125322 -9.62576862 19.99507005 -11.23046875 20 C-14.39206603 19.7560922 -15.9082357 19.59378198 -18.265625 17.42578125 C-19.74767205 15.37517395 -21.08313684 13.2732451 -22.41796875 11.125 C-23.71668719 9.75792796 -25.03241009 8.40397723 -26.41796875 7.125 C-25.33927482 6.16144756 -24.25478132 5.20438583 -23.16796875 4.25 C-22.26304688 3.44949219 -22.26304688 3.44949219 -21.33984375 2.6328125 C-15.32246462 -2.08813942 -7.16921393 -2.59435205 0 0 Z " fill="#FDD108" transform="translate(119.41796875,76.875)"/>
<path d="M0 0 C3.31296104 3.09922162 4.81984744 5.00650852 5.23828125 9.63671875 C5.40087804 16.32030252 5.07026147 21.51339755 1 27 C-1.25 29 -1.25 29 -3 30 C-3.15855469 29.41992188 -3.31710938 28.83984375 -3.48046875 28.2421875 C-5.51330412 21.4361199 -7.94204153 17.03863898 -14 13 C-16.50896686 12.54398739 -16.50896686 12.54398739 -19.1875 12.375 C-20.08855469 12.30023438 -20.98960938 12.22546875 -21.91796875 12.1484375 C-22.60503906 12.09945312 -23.29210937 12.05046875 -24 12 C-24 11.67 -24 11.34 -24 11 C-23.02933594 10.93941406 -22.05867188 10.87882812 -21.05859375 10.81640625 C-16.07847056 10.10496008 -12.27018041 7.55873707 -8.0625 4.9375 C-7.28326172 4.46505859 -6.50402344 3.99261719 -5.70117188 3.50585938 C-3.79411259 2.34758411 -1.89431461 1.17896117 0 0 Z " fill="#F8C10D" transform="translate(127,84)"/>
<path d="M0 0 C4.455 0.99 4.455 0.99 9 2 C9.33 3.32 9.66 4.64 10 6 C6.44706507 7.14947895 5.20023331 7.0868937 1.6875 5.5625 C0.800625 5.046875 -0.08625 4.53125 -1 4 C-0.67 2.68 -0.34 1.36 0 0 Z " fill="#FAC724" transform="translate(137,103)"/>
<path d="M0 0 C0 1.32 0 2.64 0 4 C-3.50776784 5.60355101 -6.14354879 6.22036864 -10 6 C-9.625 3.5625 -9.625 3.5625 -9 1 C-6.04335481 -0.4783226 -3.25770263 -0.06032783 0 0 Z " fill="#FAC620" transform="translate(147,87)"/>
<path d="M0 0 C1.953125 0.7109375 1.953125 0.7109375 4 2 C4.609375 4.1640625 4.609375 4.1640625 4.75 6.625 C4.80671875 7.44226563 4.8634375 8.25953125 4.921875 9.1015625 C4.94765625 9.72804688 4.9734375 10.35453125 5 11 C3.35 10.67 1.7 10.34 0 10 C-0.19412181 8.52168779 -0.38012131 7.04230684 -0.5625 5.5625 C-0.66691406 4.73878906 -0.77132812 3.91507813 -0.87890625 3.06640625 C-0.91886719 2.38449219 -0.95882812 1.70257813 -1 1 C-0.67 0.67 -0.34 0.34 0 0 Z " fill="#FAC419" transform="translate(101,60)"/>
<path d="M0 0 C1.32 0.33 2.64 0.66 4 1 C3.25 8.75 3.25 8.75 1 11 C0.01 11 -0.98 11 -2 11 C-2.25 3.375 -2.25 3.375 0 0 Z " fill="#FAC622" transform="translate(119,61)"/>
<path d="M0 0 C3.15473719 0.35052635 4.8233534 0.86519076 7.375 2.8125 C9 5 9 5 8.75 7.25 C8.5025 7.8275 8.255 8.405 8 9 C4.21304827 8.4590069 2.37254028 6.96567536 0 4 C0 2.68 0 1.36 0 0 Z " fill="#FAC418" transform="translate(84,70)"/>
<path d="M0 0 C1.1446875 0.3403125 1.1446875 0.3403125 2.3125 0.6875 C0.86996343 4.05341866 -1.02014727 6.19797079 -3.6875 8.6875 C-4.6775 8.3575 -5.6675 8.0275 -6.6875 7.6875 C-6.32553085 5.00892828 -5.94762724 3.07769086 -4.4375 0.8125 C-2.6875 -0.3125 -2.6875 -0.3125 0 0 Z " fill="#F9C41B" transform="translate(136.6875,71.3125)"/>
<path d="M0 0 C2.86001033 1.28207359 5.07039412 2.49151236 7 5 C7 6.32 7 7.64 7 9 C4.32142828 8.63803085 2.39019086 8.26012724 0.125 6.75 C-1 5 -1 5 -0.6875 2.3125 C-0.460625 1.549375 -0.23375 0.78625 0 0 Z " fill="#FAC418" transform="translate(130,116)"/>
<path d="M0 0 C1.32 0.66 2.64 1.32 4 2 C4 2.66 4 3.32 4 4 C3.360625 4.12375 2.72125 4.2475 2.0625 4.375 C1.0415625 4.684375 1.0415625 4.684375 0 5 C-0.33 5.66 -0.66 6.32 -1 7 C-1.04254356 5.00045254 -1.04080783 2.99958364 -1 1 C-0.67 0.67 -0.34 0.34 0 0 Z " fill="#F9C82B" transform="translate(101,60)"/>
</svg>
